<svg xmlns="http://www.w3.org/2000/svg" xmlns:xlink="http://www.w3.org/1999/xlink" width="56" zoomAndPan="magnify" viewBox="0 0 42 36.750001" height="49" preserveAspectRatio="xMidYMid meet" version="1.0"><defs><g/><clipPath id="7b6a3a9efc"><path d="M 1 6.382812 L 13 6.382812 L 13 9 L 1 9 Z M 1 6.382812 " clip-rule="nonzero"/></clipPath><clipPath id="1c4326651c"><path d="M 3.40625 13.222656 L 10.128906 13.222656 L 10.128906 30.101562 L 3.40625 30.101562 Z M 3.40625 13.222656 " clip-rule="nonzero"/></clipPath><clipPath id="05440f9601"><path d="M 0.140625 9 L 15 9 L 15 28 L 0.140625 28 Z M 0.140625 9 " clip-rule="nonzero"/></clipPath><clipPath id="22b05b6b05"><path d="M 9.949219 13.222656 L 41.777344 13.222656 L 41.777344 23.421875 L 9.949219 23.421875 Z M 9.949219 13.222656 " clip-rule="nonzero"/></clipPath><clipPath id="bd9bccf0e6"><path d="M 3 6 L 41.855469 6 L 41.855469 8 L 3 8 Z M 3 6 " clip-rule="nonzero"/></clipPath></defs><g clip-path="url(#7b6a3a9efc)"><path fill="#056367" d="M 1.945312 8.210938 L 11.394531 8.210938 C 11.898438 8.210938 12.308594 7.804688 12.308594 7.296875 C 12.308594 6.792969 11.898438 6.386719 11.394531 6.386719 L 1.945312 6.386719 C 1.441406 6.386719 1.03125 6.792969 1.03125 7.296875 C 1.03125 7.804688 1.441406 8.210938 1.945312 8.210938 " fill-opacity="1" fill-rule="nonzero"/></g><g clip-path="url(#1c4326651c)"><path fill="#056367" d="M 3.40625 13.253906 L 9.050781 30.101562 L 10.085938 28.496094 L 4.980469 13.253906 L 3.40625 13.253906 " fill-opacity="1" fill-rule="nonzero"/></g><g clip-path="url(#05440f9601)"><path fill="#056367" d="M 9.324219 11.453125 L 13.3125 11.453125 C 13.964844 11.453125 14.492188 10.914062 14.46875 10.253906 C 14.449219 9.625 13.914062 9.136719 13.285156 9.136719 L 1.324219 9.136719 C 0.671875 9.136719 0.144531 9.675781 0.167969 10.335938 C 0.1875 10.964844 0.722656 11.453125 1.351562 11.453125 L 4.328125 11.453125 C 5.234375 11.453125 6.039062 12.035156 6.324219 12.894531 L 11.023438 27.035156 L 12.460938 24.800781 L 8.433594 12.6875 C 8.234375 12.082031 8.683594 11.453125 9.324219 11.453125 " fill-opacity="1" fill-rule="nonzero"/></g><g clip-path="url(#22b05b6b05)"><path fill="#056367" d="M 14.34375 21.679688 L 11.523438 13.253906 L 9.949219 13.253906 L 13.355469 23.414062 L 41.777344 23.414062 L 41.777344 21.679688 L 14.34375 21.679688 " fill-opacity="1" fill-rule="nonzero"/></g><g clip-path="url(#bd9bccf0e6)"><path stroke-linecap="butt" transform="matrix(0.744932, 0, 0, 0.744932, 4.003588, 6.592654)" fill="none" stroke-linejoin="miter" d="M 0.000427851 0.499628 L 50.817747 0.499628 " stroke="#056367" stroke-width="1" stroke-opacity="1" stroke-miterlimit="4"/></g><g fill="#056367" fill-opacity="1"><g transform="translate(16.275555, 18.279537)"><g><path d="M 11.765625 -0.125 L 11.984375 -0.125 L 11.984375 0 L 9.140625 0 L 9.140625 -0.125 L 9.34375 -0.125 C 9.488281 -0.125 9.613281 -0.179688 9.71875 -0.296875 C 9.820312 -0.410156 9.863281 -0.539062 9.84375 -0.6875 L 9.265625 -7.265625 L 6.515625 -1.15625 C 6.265625 -0.625 6.113281 -0.175781 6.0625 0.1875 L 5.9375 0.1875 L 2.59375 -7.078125 L 2.03125 -0.6875 C 2.007812 -0.539062 2.050781 -0.410156 2.15625 -0.296875 C 2.257812 -0.179688 2.382812 -0.125 2.53125 -0.125 L 2.734375 -0.125 L 2.734375 0 L 0.203125 0 L 0.203125 -0.125 L 0.40625 -0.125 C 0.644531 -0.125 0.851562 -0.195312 1.03125 -0.34375 C 1.21875 -0.5 1.328125 -0.703125 1.359375 -0.953125 L 2.34375 -9.34375 L 2.46875 -9.34375 L 6.125 -1.453125 L 9.6875 -9.34375 L 9.8125 -9.34375 L 10.8125 -0.953125 C 10.851562 -0.609375 11.03125 -0.363281 11.34375 -0.21875 C 11.46875 -0.15625 11.609375 -0.125 11.765625 -0.125 Z M 11.765625 -0.125 "/></g></g></g><g fill="#056367" fill-opacity="1"><g transform="translate(28.449534, 18.279537)"><g/></g></g><g fill="#056367" fill-opacity="1"><g transform="translate(31.718593, 18.279537)"><g><path d="M 0.953125 -0.125 C 1.179688 -0.125 1.375 -0.203125 1.53125 -0.359375 C 1.695312 -0.523438 1.785156 -0.722656 1.796875 -0.953125 L 1.796875 -8.203125 C 1.785156 -8.429688 1.695312 -8.625 1.53125 -8.78125 C 1.375 -8.945312 1.179688 -9.03125 0.953125 -9.03125 L 0.78125 -9.03125 L 0.78125 -9.15625 L 3.65625 -9.15625 L 3.65625 -9.03125 L 3.484375 -9.03125 C 3.171875 -9.03125 2.929688 -8.894531 2.765625 -8.625 C 2.679688 -8.488281 2.640625 -8.347656 2.640625 -8.203125 L 2.640625 -0.40625 L 4.515625 -0.40625 C 5.160156 -0.40625 5.648438 -0.546875 5.984375 -0.828125 C 6.328125 -1.117188 6.613281 -1.550781 6.84375 -2.125 L 6.96875 -2.125 L 6.21875 0 L 0.78125 0 L 0.78125 -0.125 Z M 0.953125 -0.125 "/></g></g></g></svg>