<svg xmlns="http://www.w3.org/2000/svg" xmlns:xlink="http://www.w3.org/1999/xlink" width="500" zoomAndPan="magnify" viewBox="0 0 375 374.999991" height="500" preserveAspectRatio="xMidYMid meet" version="1.0"><defs><g/><clipPath id="be05a70ba8"><path d="M 4 133.324219 L 56 133.324219 L 56 142 L 4 142 Z M 4 133.324219 " clip-rule="nonzero"/></clipPath><clipPath id="83d6fa01ec"><path d="M 14.910156 164.570312 L 45.589844 164.570312 L 45.589844 241.636719 L 14.910156 241.636719 Z M 14.910156 164.570312 " clip-rule="nonzero"/></clipPath><clipPath id="ef0675227c"><path d="M 44.78125 164.570312 L 190.085938 164.570312 L 190.085938 211.128906 L 44.78125 211.128906 Z M 44.78125 164.570312 " clip-rule="nonzero"/></clipPath></defs><rect x="-37.5" width="450" fill="#ffffff" y="-37.499999" height="449.999989" fill-opacity="1"/><rect x="-37.5" width="450" fill="#076367" y="-37.499999" height="449.999989" fill-opacity="1"/><g clip-path="url(#be05a70ba8)"><path fill="#ffffff" d="M 8.238281 141.695312 L 51.371094 141.695312 C 53.675781 141.695312 55.542969 139.824219 55.542969 137.523438 C 55.542969 135.21875 53.675781 133.351562 51.371094 133.351562 L 8.238281 133.351562 C 5.933594 133.351562 4.066406 135.21875 4.066406 137.523438 C 4.066406 139.824219 5.933594 141.695312 8.238281 141.695312 " fill-opacity="1" fill-rule="nonzero"/></g><g clip-path="url(#83d6fa01ec)"><path fill="#ffffff" d="M 14.910156 164.71875 L 40.671875 241.636719 L 45.398438 234.296875 L 22.09375 164.71875 L 14.910156 164.71875 " fill-opacity="1" fill-rule="nonzero"/></g><path fill="#ffffff" d="M 41.925781 156.496094 L 60.128906 156.496094 C 63.117188 156.496094 65.527344 154.023438 65.417969 151.007812 C 65.316406 148.140625 62.871094 145.910156 60.003906 145.910156 L 5.402344 145.910156 C 2.414062 145.910156 0.00390625 148.382812 0.109375 151.398438 C 0.210938 154.265625 2.65625 156.496094 5.527344 156.496094 L 19.117188 156.496094 C 23.25 156.496094 26.917969 159.140625 28.21875 163.0625 L 49.683594 227.632812 L 56.25 217.433594 L 37.863281 162.125 C 36.945312 159.355469 39.003906 156.496094 41.925781 156.496094 " fill-opacity="1" fill-rule="nonzero"/><g clip-path="url(#ef0675227c)"><path fill="#ffffff" d="M 64.847656 203.175781 L 51.964844 164.71875 L 44.78125 164.71875 L 60.320312 211.105469 L 190.089844 211.105469 L 190.089844 203.175781 L 64.847656 203.175781 " fill-opacity="1" fill-rule="nonzero"/></g><g fill="#ffffff" fill-opacity="1"><g transform="translate(64.209799, 197.063892)"><g><path d="M 50.171875 -0.5625 L 51.0625 -0.5625 L 51.0625 0 L 38.96875 0 L 38.96875 -0.5 L 39.8125 -0.5 C 40.4375 -0.5 40.972656 -0.75 41.421875 -1.25 C 41.867188 -1.75 42.054688 -2.300781 41.984375 -2.90625 L 39.46875 -30.9375 L 27.765625 -4.90625 C 26.722656 -2.632812 26.09375 -0.738281 25.875 0.78125 L 25.3125 0.78125 L 11.03125 -30.15625 L 8.640625 -2.90625 C 8.566406 -2.300781 8.753906 -1.75 9.203125 -1.25 C 9.648438 -0.75 10.171875 -0.5 10.765625 -0.5 L 11.65625 -0.5 L 11.65625 0 L 0.84375 0 L 0.84375 -0.5625 L 1.734375 -0.5625 C 2.773438 -0.5625 3.675781 -0.875 4.4375 -1.5 C 5.195312 -2.132812 5.648438 -2.988281 5.796875 -4.0625 L 9.984375 -39.8125 L 10.53125 -39.8125 L 26.09375 -6.1875 L 41.3125 -39.8125 L 41.8125 -39.8125 L 46.109375 -4.0625 C 46.296875 -2.582031 47.035156 -1.546875 48.328125 -0.953125 C 48.890625 -0.691406 49.503906 -0.5625 50.171875 -0.5625 Z M 50.171875 -0.5625 "/></g></g></g><g fill="#ffffff" fill-opacity="1"><g transform="translate(116.118659, 197.063892)"><g><path d="M 4.0625 -0.5625 C 5.03125 -0.5625 5.859375 -0.90625 6.546875 -1.59375 C 7.234375 -2.28125 7.597656 -3.101562 7.640625 -4.0625 L 7.640625 -35.296875 C 7.523438 -36.179688 7.132812 -36.929688 6.46875 -37.546875 C 5.800781 -38.160156 5 -38.46875 4.0625 -38.46875 L 3.40625 -38.46875 L 3.34375 -39.03125 L 19.6875 -39.03125 C 20.832031 -39.03125 22.082031 -39.140625 23.4375 -39.359375 C 24.800781 -39.578125 25.757812 -39.800781 26.3125 -40.03125 L 26.3125 -33 L 25.75 -33 L 25.75 -34 C 25.75 -34.894531 25.441406 -35.65625 24.828125 -36.28125 C 24.222656 -36.914062 23.492188 -37.253906 22.640625 -37.296875 L 11.265625 -37.296875 L 11.265625 -20.0625 L 20.6875 -20.0625 C 21.425781 -20.101562 22.054688 -20.382812 22.578125 -20.90625 C 23.097656 -21.425781 23.359375 -22.078125 23.359375 -22.859375 L 23.359375 -23.640625 L 23.921875 -23.640625 L 23.921875 -14.828125 L 23.359375 -14.828125 L 23.359375 -15.671875 C 23.359375 -16.410156 23.109375 -17.039062 22.609375 -17.5625 C 22.109375 -18.082031 21.484375 -18.359375 20.734375 -18.390625 L 11.265625 -18.390625 L 11.265625 -1.734375 L 19.234375 -1.734375 C 21.984375 -1.734375 24.082031 -2.34375 25.53125 -3.5625 C 26.976562 -4.789062 28.1875 -6.613281 29.15625 -9.03125 L 29.71875 -9.03125 L 26.484375 0 L 3.34375 0 L 3.34375 -0.5625 Z M 4.0625 -0.5625 "/></g></g></g><g fill="#ffffff" fill-opacity="1"><g transform="translate(148.289882, 197.063892)"><g><path d="M 43.375 -38.46875 C 42.445312 -38.46875 41.644531 -38.140625 40.96875 -37.484375 C 40.300781 -36.835938 39.953125 -36.050781 39.921875 -35.125 L 39.921875 -6.359375 C 39.921875 -4.203125 40.050781 -2.15625 40.3125 -0.21875 L 40.421875 0.78125 L 39.921875 0.78125 L 9.53125 -31.671875 L 9.53125 -3.90625 C 9.570312 -2.601562 10.148438 -1.632812 11.265625 -1 C 11.785156 -0.707031 12.34375 -0.5625 12.9375 -0.5625 L 14 -0.5625 L 14 0 L 2.515625 0 L 2.515625 -0.5625 L 3.5625 -0.5625 C 4.5 -0.5625 5.300781 -0.882812 5.96875 -1.53125 C 6.632812 -2.1875 6.96875 -2.992188 6.96875 -3.953125 L 6.96875 -32.890625 C 6.96875 -35.160156 6.835938 -37.1875 6.578125 -38.96875 L 6.46875 -39.859375 L 7.03125 -39.859375 L 37.40625 -7.421875 L 37.40625 -35.0625 C 37.375 -36.03125 37.019531 -36.835938 36.34375 -37.484375 C 35.675781 -38.140625 34.878906 -38.46875 33.953125 -38.46875 L 32.890625 -38.46875 L 32.890625 -39.03125 L 44.375 -39.03125 L 44.375 -38.46875 Z M 43.375 -38.46875 "/></g></g></g><g fill="#ffffff" fill-opacity="1"><g transform="translate(195.180704, 197.063892)"><g><path d="M 3.40625 -2.28125 C 3.289062 -2.800781 3.234375 -3.804688 3.234375 -5.296875 C 3.234375 -6.785156 3.507812 -8.363281 4.0625 -10.03125 L 4.578125 -10.03125 C 4.535156 -9.625 4.515625 -9.21875 4.515625 -8.8125 C 4.515625 -6.539062 5.203125 -4.648438 6.578125 -3.140625 C 7.953125 -1.640625 9.773438 -0.890625 12.046875 -0.890625 C 14.378906 -0.890625 16.296875 -1.59375 17.796875 -3 C 19.304688 -4.414062 20.0625 -6.191406 20.0625 -8.328125 C 20.0625 -10.472656 19.335938 -12.210938 17.890625 -13.546875 L 7.1875 -23.46875 C 5.1875 -25.332031 4.1875 -27.582031 4.1875 -30.21875 C 4.1875 -32.851562 5.066406 -35.109375 6.828125 -36.984375 C 8.597656 -38.867188 10.988281 -39.8125 14 -39.8125 C 15.40625 -39.8125 17 -39.625 18.78125 -39.25 L 20.96875 -39.25 L 20.96875 -32.390625 L 20.453125 -32.390625 C 20.453125 -34.140625 19.847656 -35.535156 18.640625 -36.578125 C 17.441406 -37.617188 15.894531 -38.140625 14 -38.140625 C 12.101562 -38.140625 10.507812 -37.503906 9.21875 -36.234375 C 7.9375 -34.972656 7.296875 -33.394531 7.296875 -31.5 C 7.296875 -29.601562 8.039062 -27.96875 9.53125 -26.59375 L 20.515625 -16.453125 C 22.367188 -14.734375 23.296875 -12.390625 23.296875 -9.421875 C 23.296875 -6.453125 22.347656 -4.007812 20.453125 -2.09375 C 18.554688 -0.175781 16.03125 0.78125 12.875 0.78125 C 11.238281 0.78125 9.5 0.53125 7.65625 0.03125 C 5.820312 -0.46875 4.40625 -1.238281 3.40625 -2.28125 Z M 3.40625 -2.28125 "/></g></g></g><g fill="#ffffff" fill-opacity="1"><g transform="translate(221.664823, 197.063892)"><g><path d="M 4.0625 -0.5625 C 5.03125 -0.5625 5.859375 -0.90625 6.546875 -1.59375 C 7.234375 -2.28125 7.597656 -3.101562 7.640625 -4.0625 L 7.640625 -34.953125 C 7.597656 -35.921875 7.234375 -36.75 6.546875 -37.4375 C 5.859375 -38.125 5.03125 -38.46875 4.0625 -38.46875 L 3.34375 -38.46875 L 3.34375 -39.03125 L 15.546875 -39.03125 L 15.546875 -38.46875 L 14.828125 -38.46875 C 13.492188 -38.46875 12.472656 -37.890625 11.765625 -36.734375 C 11.429688 -36.179688 11.265625 -35.585938 11.265625 -34.953125 L 11.265625 -1.734375 L 19.234375 -1.734375 C 21.984375 -1.734375 24.082031 -2.34375 25.53125 -3.5625 C 26.976562 -4.789062 28.1875 -6.613281 29.15625 -9.03125 L 29.71875 -9.03125 L 26.484375 0 L 3.34375 0 L 3.34375 -0.5625 Z M 4.0625 -0.5625 "/></g></g></g><g fill="#ffffff" fill-opacity="1"><g transform="translate(252.999701, 197.063892)"><g><path d="M 4.0625 -0.5625 C 5.03125 -0.5625 5.859375 -0.90625 6.546875 -1.59375 C 7.234375 -2.28125 7.597656 -3.101562 7.640625 -4.0625 L 7.640625 -35.296875 C 7.523438 -36.179688 7.132812 -36.929688 6.46875 -37.546875 C 5.800781 -38.160156 5 -38.46875 4.0625 -38.46875 L 3.40625 -38.46875 L 3.34375 -39.03125 L 19.6875 -39.03125 C 20.832031 -39.03125 22.082031 -39.140625 23.4375 -39.359375 C 24.800781 -39.578125 25.757812 -39.800781 26.3125 -40.03125 L 26.3125 -33 L 25.75 -33 L 25.75 -34 C 25.75 -34.894531 25.441406 -35.65625 24.828125 -36.28125 C 24.222656 -36.914062 23.492188 -37.253906 22.640625 -37.296875 L 11.265625 -37.296875 L 11.265625 -20.0625 L 20.6875 -20.0625 C 21.425781 -20.101562 22.054688 -20.382812 22.578125 -20.90625 C 23.097656 -21.425781 23.359375 -22.078125 23.359375 -22.859375 L 23.359375 -23.640625 L 23.921875 -23.640625 L 23.921875 -14.828125 L 23.359375 -14.828125 L 23.359375 -15.671875 C 23.359375 -16.410156 23.109375 -17.039062 22.609375 -17.5625 C 22.109375 -18.082031 21.484375 -18.359375 20.734375 -18.390625 L 11.265625 -18.390625 L 11.265625 -1.734375 L 19.234375 -1.734375 C 21.984375 -1.734375 24.082031 -2.34375 25.53125 -3.5625 C 26.976562 -4.789062 28.1875 -6.613281 29.15625 -9.03125 L 29.71875 -9.03125 L 26.484375 0 L 3.34375 0 L 3.34375 -0.5625 Z M 4.0625 -0.5625 "/></g></g></g><g fill="#ffffff" fill-opacity="1"><g transform="translate(285.170931, 197.063892)"><g><path d="M 23.359375 0.78125 C 17.410156 0.738281 12.585938 -1.132812 8.890625 -4.84375 C 5.191406 -8.5625 3.34375 -13.445312 3.34375 -19.5 C 3.34375 -25.5625 5.191406 -30.460938 8.890625 -34.203125 C 12.585938 -37.941406 17.410156 -39.8125 23.359375 -39.8125 C 28.484375 -39.8125 33 -38.546875 36.90625 -36.015625 L 38.015625 -28.15625 L 37.515625 -28.15625 C 36.703125 -31.351562 35.054688 -33.816406 32.578125 -35.546875 C 30.109375 -37.273438 27.035156 -38.140625 23.359375 -38.140625 C 18.640625 -38.140625 14.820312 -36.425781 11.90625 -33 C 8.988281 -29.582031 7.53125 -25.085938 7.53125 -19.515625 C 7.53125 -13.941406 8.988281 -9.453125 11.90625 -6.046875 C 14.820312 -2.648438 18.640625 -0.929688 23.359375 -0.890625 C 25.773438 -0.890625 28.066406 -1.316406 30.234375 -2.171875 C 32.410156 -3.023438 34.316406 -4.21875 35.953125 -5.75 L 35.953125 -15.609375 C 35.953125 -16.429688 35.703125 -17.054688 35.203125 -17.484375 C 34.703125 -17.910156 34.003906 -18.125 33.109375 -18.125 L 32.21875 -18.125 L 32.21875 -18.671875 L 43.15625 -18.671875 L 43.15625 -18.125 L 42.3125 -18.125 C 41.382812 -18.125 40.675781 -17.910156 40.1875 -17.484375 C 39.707031 -17.054688 39.488281 -16.429688 39.53125 -15.609375 L 39.53125 -6.40625 C 38.5625 -5.144531 37.40625 -4.007812 36.0625 -3 C 34.726562 -2 32.9375 -1.117188 30.6875 -0.359375 C 28.4375 0.398438 25.992188 0.78125 23.359375 0.78125 Z M 23.359375 0.78125 "/></g></g></g><g fill="#ffffff" fill-opacity="1"><g transform="translate(329.664233, 197.063892)"><g><path d="M 4.0625 -0.5625 C 5.03125 -0.5625 5.859375 -0.90625 6.546875 -1.59375 C 7.234375 -2.28125 7.597656 -3.101562 7.640625 -4.0625 L 7.640625 -35.015625 C 7.597656 -35.972656 7.234375 -36.785156 6.546875 -37.453125 C 5.859375 -38.128906 5.03125 -38.46875 4.0625 -38.46875 L 3.34375 -38.46875 L 3.34375 -39.03125 L 15.546875 -39.03125 L 15.546875 -38.46875 L 14.828125 -38.46875 C 13.859375 -38.46875 13.03125 -38.128906 12.34375 -37.453125 C 11.65625 -36.785156 11.296875 -35.972656 11.265625 -35.015625 L 11.265625 -4.0625 C 11.265625 -3.101562 11.613281 -2.28125 12.3125 -1.59375 C 13.019531 -0.90625 13.859375 -0.5625 14.828125 -0.5625 L 15.546875 -0.5625 L 15.546875 0 L 3.34375 0 L 3.34375 -0.5625 Z M 4.0625 -0.5625 "/></g></g></g><g fill="#ffffff" fill-opacity="1"><g transform="translate(348.509769, 197.063892)"><g><path d="M 3.40625 -2.28125 C 3.289062 -2.800781 3.234375 -3.804688 3.234375 -5.296875 C 3.234375 -6.785156 3.507812 -8.363281 4.0625 -10.03125 L 4.578125 -10.03125 C 4.535156 -9.625 4.515625 -9.21875 4.515625 -8.8125 C 4.515625 -6.539062 5.203125 -4.648438 6.578125 -3.140625 C 7.953125 -1.640625 9.773438 -0.890625 12.046875 -0.890625 C 14.378906 -0.890625 16.296875 -1.59375 17.796875 -3 C 19.304688 -4.414062 20.0625 -6.191406 20.0625 -8.328125 C 20.0625 -10.472656 19.335938 -12.210938 17.890625 -13.546875 L 7.1875 -23.46875 C 5.1875 -25.332031 4.1875 -27.582031 4.1875 -30.21875 C 4.1875 -32.851562 5.066406 -35.109375 6.828125 -36.984375 C 8.597656 -38.867188 10.988281 -39.8125 14 -39.8125 C 15.40625 -39.8125 17 -39.625 18.78125 -39.25 L 20.96875 -39.25 L 20.96875 -32.390625 L 20.453125 -32.390625 C 20.453125 -34.140625 19.847656 -35.535156 18.640625 -36.578125 C 17.441406 -37.617188 15.894531 -38.140625 14 -38.140625 C 12.101562 -38.140625 10.507812 -37.503906 9.21875 -36.234375 C 7.9375 -34.972656 7.296875 -33.394531 7.296875 -31.5 C 7.296875 -29.601562 8.039062 -27.96875 9.53125 -26.59375 L 20.515625 -16.453125 C 22.367188 -14.734375 23.296875 -12.390625 23.296875 -9.421875 C 23.296875 -6.453125 22.347656 -4.007812 20.453125 -2.09375 C 18.554688 -0.175781 16.03125 0.78125 12.875 0.78125 C 11.238281 0.78125 9.5 0.53125 7.65625 0.03125 C 5.820312 -0.46875 4.40625 -1.238281 3.40625 -2.28125 Z M 3.40625 -2.28125 "/></g></g></g><path stroke-linecap="butt" transform="matrix(0.475214, 0, 0, 0.475214, 232.611918, 146.089224)" fill="none" stroke-linejoin="miter" d="M 0.00286865 1.998758 L 299.629205 1.998758 " stroke="#ffffff" stroke-width="4" stroke-opacity="1" stroke-miterlimit="4"/></svg>