<svg xmlns="http://www.w3.org/2000/svg" xmlns:xlink="http://www.w3.org/1999/xlink" width="1000" zoomAndPan="magnify" viewBox="0 0 750 749.999995" height="1000" preserveAspectRatio="xMidYMid meet" version="1.0"><defs><g/><clipPath id="84688d4c17"><path d="M 8 266.652344 L 112 266.652344 L 112 284 L 8 284 Z M 8 266.652344 " clip-rule="nonzero"/></clipPath><clipPath id="65adf3318c"><path d="M 29.820312 329.140625 L 91 329.140625 L 91 483.277344 L 29.820312 483.277344 Z M 29.820312 329.140625 " clip-rule="nonzero"/></clipPath><clipPath id="2fa0cf81b6"><path d="M 89.566406 329.140625 L 380.171875 329.140625 L 380.171875 422.257812 L 89.566406 422.257812 Z M 89.566406 329.140625 " clip-rule="nonzero"/></clipPath></defs><rect x="-75" width="900" fill="#ffffff" y="-74.999999" height="899.999994" fill-opacity="1"/><rect x="-75" width="900" fill="#056367" y="-74.999999" height="899.999994" fill-opacity="1"/><g clip-path="url(#84688d4c17)"><path fill="#ffffff" d="M 16.472656 283.386719 L 102.742188 283.386719 C 107.351562 283.386719 111.085938 279.652344 111.085938 275.046875 C 111.085938 270.4375 107.351562 266.703125 102.742188 266.703125 L 16.472656 266.703125 C 11.867188 266.703125 8.132812 270.4375 8.132812 275.046875 C 8.132812 279.652344 11.867188 283.386719 16.472656 283.386719 " fill-opacity="1" fill-rule="nonzero"/></g><g clip-path="url(#65adf3318c)"><path fill="#ffffff" d="M 29.820312 329.433594 L 81.34375 483.277344 L 90.792969 468.589844 L 44.1875 329.433594 L 29.820312 329.433594 " fill-opacity="1" fill-rule="nonzero"/></g><path fill="#ffffff" d="M 83.847656 312.992188 L 120.257812 312.992188 C 126.234375 312.992188 131.050781 308.042969 130.835938 302.019531 C 130.632812 296.285156 125.746094 291.820312 120.003906 291.820312 L 10.800781 291.820312 C 4.828125 291.820312 0.0078125 296.769531 0.222656 302.792969 C 0.425781 308.527344 5.3125 312.992188 11.054688 312.992188 L 38.230469 312.992188 C 46.496094 312.992188 53.832031 318.285156 56.441406 326.128906 L 99.367188 455.269531 L 112.496094 434.863281 L 75.730469 324.246094 C 73.886719 318.707031 78.011719 312.992188 83.847656 312.992188 " fill-opacity="1" fill-rule="nonzero"/><g clip-path="url(#2fa0cf81b6)"><path fill="#ffffff" d="M 129.695312 406.355469 L 103.933594 329.433594 L 89.566406 329.433594 L 120.640625 422.207031 L 380.179688 422.207031 L 380.179688 406.355469 L 129.695312 406.355469 " fill-opacity="1" fill-rule="nonzero"/></g><g fill="#ffffff" fill-opacity="1"><g transform="translate(128.419597, 394.127812)"><g><path d="M 100.359375 -1.109375 L 102.140625 -1.109375 L 102.140625 0 L 77.953125 0 L 77.953125 -1 L 79.625 -1 C 80.882812 -1 81.957031 -1.5 82.84375 -2.5 C 83.738281 -3.507812 84.113281 -4.609375 83.96875 -5.796875 L 78.953125 -61.890625 L 55.53125 -9.8125 C 53.445312 -5.28125 52.1875 -1.488281 51.75 1.5625 L 50.625 1.5625 L 22.078125 -60.328125 L 17.28125 -5.796875 C 17.132812 -4.609375 17.503906 -3.507812 18.390625 -2.5 C 19.285156 -1.5 20.328125 -1 21.515625 -1 L 23.3125 -1 L 23.3125 0 L 1.671875 0 L 1.671875 -1.109375 L 3.453125 -1.109375 C 5.535156 -1.109375 7.335938 -1.738281 8.859375 -3 C 10.390625 -4.269531 11.300781 -5.984375 11.59375 -8.140625 L 19.96875 -79.625 L 21.078125 -79.625 L 52.1875 -12.375 L 82.640625 -79.625 L 83.640625 -79.625 L 92.21875 -8.140625 C 92.59375 -5.171875 94.082031 -3.085938 96.6875 -1.890625 C 97.800781 -1.367188 99.023438 -1.109375 100.359375 -1.109375 Z M 100.359375 -1.109375 "/></g></g></g><g fill="#ffffff" fill-opacity="1"><g transform="translate(232.23732, 394.127812)"><g><path d="M 8.140625 -1.109375 C 10.078125 -1.109375 11.734375 -1.796875 13.109375 -3.171875 C 14.484375 -4.546875 15.207031 -6.203125 15.28125 -8.140625 L 15.28125 -70.59375 C 15.050781 -72.375 14.265625 -73.878906 12.921875 -75.109375 C 11.585938 -76.335938 9.992188 -76.953125 8.140625 -76.953125 L 6.796875 -76.953125 L 6.6875 -78.0625 L 39.359375 -78.0625 C 41.671875 -78.0625 44.179688 -78.285156 46.890625 -78.734375 C 49.609375 -79.179688 51.523438 -79.625 52.640625 -80.0625 L 52.640625 -66.015625 L 51.515625 -66.015625 L 51.515625 -68.03125 C 51.515625 -69.8125 50.898438 -71.332031 49.671875 -72.59375 C 48.453125 -73.863281 46.988281 -74.535156 45.28125 -74.609375 L 22.53125 -74.609375 L 22.53125 -40.140625 L 41.375 -40.140625 C 42.863281 -40.210938 44.125 -40.769531 45.15625 -41.8125 C 46.195312 -42.851562 46.71875 -44.15625 46.71875 -45.71875 L 46.71875 -47.28125 L 47.84375 -47.28125 L 47.84375 -29.65625 L 46.71875 -29.65625 L 46.71875 -31.328125 C 46.71875 -32.816406 46.21875 -34.082031 45.21875 -35.125 C 44.21875 -36.164062 42.972656 -36.722656 41.484375 -36.796875 L 22.53125 -36.796875 L 22.53125 -3.453125 L 38.46875 -3.453125 C 43.96875 -3.453125 48.164062 -4.675781 51.0625 -7.125 C 53.96875 -9.582031 56.390625 -13.226562 58.328125 -18.0625 L 59.4375 -18.0625 L 52.96875 0 L 6.6875 0 L 6.6875 -1.109375 Z M 8.140625 -1.109375 "/></g></g></g><g fill="#ffffff" fill-opacity="1"><g transform="translate(296.57977, 394.127812)"><g><path d="M 86.765625 -76.953125 C 84.898438 -76.953125 83.296875 -76.300781 81.953125 -75 C 80.617188 -73.695312 79.914062 -72.113281 79.84375 -70.25 L 79.84375 -12.71875 C 79.84375 -8.40625 80.101562 -4.316406 80.625 -0.453125 L 80.84375 1.5625 L 79.84375 1.5625 L 19.0625 -63.34375 L 19.0625 -7.8125 C 19.144531 -5.207031 20.300781 -3.269531 22.53125 -2 C 23.570312 -1.40625 24.6875 -1.109375 25.875 -1.109375 L 27.984375 -1.109375 L 27.984375 0 L 5.015625 0 L 5.015625 -1.109375 L 7.140625 -1.109375 C 8.992188 -1.109375 10.585938 -1.757812 11.921875 -3.0625 C 13.265625 -4.363281 13.9375 -5.984375 13.9375 -7.921875 L 13.9375 -65.796875 C 13.9375 -70.328125 13.675781 -74.378906 13.15625 -77.953125 L 12.9375 -79.734375 L 14.046875 -79.734375 L 74.828125 -14.828125 L 74.828125 -70.140625 C 74.753906 -72.078125 74.046875 -73.695312 72.703125 -75 C 71.367188 -76.300781 69.769531 -76.953125 67.90625 -76.953125 L 65.796875 -76.953125 L 65.796875 -78.0625 L 88.765625 -78.0625 L 88.765625 -76.953125 Z M 86.765625 -76.953125 "/></g></g></g><g fill="#ffffff" fill-opacity="1"><g transform="translate(390.361418, 394.127812)"><g><path d="M 6.796875 -4.578125 C 6.578125 -5.617188 6.46875 -7.625 6.46875 -10.59375 C 6.46875 -13.5625 7.023438 -16.722656 8.140625 -20.078125 L 9.140625 -20.078125 C 9.066406 -19.253906 9.03125 -18.4375 9.03125 -17.625 C 9.03125 -13.082031 10.40625 -9.304688 13.15625 -6.296875 C 15.90625 -3.285156 19.550781 -1.78125 24.09375 -1.78125 C 28.769531 -1.78125 32.613281 -3.191406 35.625 -6.015625 C 38.632812 -8.847656 40.140625 -12.398438 40.140625 -16.671875 C 40.140625 -20.941406 38.691406 -24.414062 35.796875 -27.09375 L 14.390625 -46.953125 C 10.367188 -50.671875 8.359375 -55.164062 8.359375 -60.4375 C 8.359375 -65.71875 10.125 -70.234375 13.65625 -73.984375 C 17.1875 -77.742188 21.960938 -79.625 27.984375 -79.625 C 30.816406 -79.625 34.015625 -79.25 37.578125 -78.5 L 41.9375 -78.5 L 41.9375 -64.796875 L 40.921875 -64.796875 C 40.921875 -68.285156 39.710938 -71.070312 37.296875 -73.15625 C 34.878906 -75.238281 31.773438 -76.28125 27.984375 -76.28125 C 24.191406 -76.28125 21.015625 -75.015625 18.453125 -72.484375 C 15.890625 -69.953125 14.609375 -66.789062 14.609375 -63 C 14.609375 -59.207031 16.09375 -55.9375 19.0625 -53.1875 L 41.03125 -32.890625 C 44.75 -29.472656 46.609375 -24.789062 46.609375 -18.84375 C 46.609375 -12.894531 44.710938 -8.003906 40.921875 -4.171875 C 37.128906 -0.347656 32.078125 1.5625 25.765625 1.5625 C 22.492188 1.5625 19.015625 1.054688 15.328125 0.046875 C 11.648438 -0.953125 8.804688 -2.492188 6.796875 -4.578125 Z M 6.796875 -4.578125 "/></g></g></g><g fill="#ffffff" fill-opacity="1"><g transform="translate(443.329658, 394.127812)"><g><path d="M 8.140625 -1.109375 C 10.078125 -1.109375 11.734375 -1.796875 13.109375 -3.171875 C 14.484375 -4.546875 15.207031 -6.203125 15.28125 -8.140625 L 15.28125 -69.921875 C 15.207031 -71.847656 14.484375 -73.5 13.109375 -74.875 C 11.734375 -76.257812 10.078125 -76.953125 8.140625 -76.953125 L 6.6875 -76.953125 L 6.6875 -78.0625 L 31.109375 -78.0625 L 31.109375 -76.953125 L 29.65625 -76.953125 C 26.988281 -76.953125 24.945312 -75.796875 23.53125 -73.484375 C 22.863281 -72.367188 22.53125 -71.179688 22.53125 -69.921875 L 22.53125 -3.453125 L 38.46875 -3.453125 C 43.96875 -3.453125 48.164062 -4.675781 51.0625 -7.125 C 53.96875 -9.582031 56.390625 -13.226562 58.328125 -18.0625 L 59.4375 -18.0625 L 52.96875 0 L 6.6875 0 L 6.6875 -1.109375 Z M 8.140625 -1.109375 "/></g></g></g><g fill="#ffffff" fill-opacity="1"><g transform="translate(505.999416, 394.127812)"><g><path d="M 8.140625 -1.109375 C 10.078125 -1.109375 11.734375 -1.796875 13.109375 -3.171875 C 14.484375 -4.546875 15.207031 -6.203125 15.28125 -8.140625 L 15.28125 -70.59375 C 15.050781 -72.375 14.265625 -73.878906 12.921875 -75.109375 C 11.585938 -76.335938 9.992188 -76.953125 8.140625 -76.953125 L 6.796875 -76.953125 L 6.6875 -78.0625 L 39.359375 -78.0625 C 41.671875 -78.0625 44.179688 -78.285156 46.890625 -78.734375 C 49.609375 -79.179688 51.523438 -79.625 52.640625 -80.0625 L 52.640625 -66.015625 L 51.515625 -66.015625 L 51.515625 -68.03125 C 51.515625 -69.8125 50.898438 -71.332031 49.671875 -72.59375 C 48.453125 -73.863281 46.988281 -74.535156 45.28125 -74.609375 L 22.53125 -74.609375 L 22.53125 -40.140625 L 41.375 -40.140625 C 42.863281 -40.210938 44.125 -40.769531 45.15625 -41.8125 C 46.195312 -42.851562 46.71875 -44.15625 46.71875 -45.71875 L 46.71875 -47.28125 L 47.84375 -47.28125 L 47.84375 -29.65625 L 46.71875 -29.65625 L 46.71875 -31.328125 C 46.71875 -32.816406 46.21875 -34.082031 45.21875 -35.125 C 44.21875 -36.164062 42.972656 -36.722656 41.484375 -36.796875 L 22.53125 -36.796875 L 22.53125 -3.453125 L 38.46875 -3.453125 C 43.96875 -3.453125 48.164062 -4.675781 51.0625 -7.125 C 53.96875 -9.582031 56.390625 -13.226562 58.328125 -18.0625 L 59.4375 -18.0625 L 52.96875 0 L 6.6875 0 L 6.6875 -1.109375 Z M 8.140625 -1.109375 "/></g></g></g><g fill="#ffffff" fill-opacity="1"><g transform="translate(570.34188, 394.127812)"><g><path d="M 46.71875 1.5625 C 34.820312 1.488281 25.175781 -2.265625 17.78125 -9.703125 C 10.382812 -17.140625 6.6875 -26.914062 6.6875 -39.03125 C 6.6875 -51.144531 10.382812 -60.9375 17.78125 -68.40625 C 25.175781 -75.882812 34.820312 -79.625 46.71875 -79.625 C 56.976562 -79.625 66.015625 -77.09375 73.828125 -72.03125 L 76.046875 -56.3125 L 75.046875 -56.3125 C 73.410156 -62.707031 70.117188 -67.632812 65.171875 -71.09375 C 60.234375 -74.550781 54.082031 -76.28125 46.71875 -76.28125 C 37.28125 -76.28125 29.640625 -72.859375 23.796875 -66.015625 C 17.960938 -59.171875 15.046875 -50.171875 15.046875 -39.015625 C 15.046875 -27.867188 17.960938 -18.894531 23.796875 -12.09375 C 29.640625 -5.289062 37.28125 -1.851562 46.71875 -1.78125 C 51.550781 -1.78125 56.140625 -2.632812 60.484375 -4.34375 C 64.835938 -6.050781 68.648438 -8.429688 71.921875 -11.484375 L 71.921875 -31.21875 C 71.921875 -32.851562 71.421875 -34.097656 70.421875 -34.953125 C 69.421875 -35.816406 68.023438 -36.25 66.234375 -36.25 L 64.453125 -36.25 L 64.453125 -37.359375 L 86.3125 -37.359375 L 86.3125 -36.25 L 84.640625 -36.25 C 82.785156 -36.25 81.375 -35.816406 80.40625 -34.953125 C 79.4375 -34.097656 78.988281 -32.851562 79.0625 -31.21875 L 79.0625 -12.828125 C 77.132812 -10.296875 74.832031 -8.023438 72.15625 -6.015625 C 69.476562 -4.015625 65.890625 -2.25 61.390625 -0.71875 C 56.890625 0.800781 52 1.5625 46.71875 1.5625 Z M 46.71875 1.5625 "/></g></g></g><g fill="#ffffff" fill-opacity="1"><g transform="translate(659.328487, 394.127812)"><g><path d="M 8.140625 -1.109375 C 10.078125 -1.109375 11.734375 -1.796875 13.109375 -3.171875 C 14.484375 -4.546875 15.207031 -6.203125 15.28125 -8.140625 L 15.28125 -70.03125 C 15.207031 -71.96875 14.484375 -73.601562 13.109375 -74.9375 C 11.734375 -76.28125 10.078125 -76.953125 8.140625 -76.953125 L 6.6875 -76.953125 L 6.6875 -78.0625 L 31.109375 -78.0625 L 31.109375 -76.953125 L 29.65625 -76.953125 C 27.726562 -76.953125 26.078125 -76.28125 24.703125 -74.9375 C 23.328125 -73.601562 22.601562 -71.96875 22.53125 -70.03125 L 22.53125 -8.140625 C 22.53125 -6.203125 23.234375 -4.546875 24.640625 -3.171875 C 26.054688 -1.796875 27.726562 -1.109375 29.65625 -1.109375 L 31.109375 -1.109375 L 31.109375 0 L 6.6875 0 L 6.6875 -1.109375 Z M 8.140625 -1.109375 "/></g></g></g><g fill="#ffffff" fill-opacity="1"><g transform="translate(697.019561, 394.127812)"><g><path d="M 6.796875 -4.578125 C 6.578125 -5.617188 6.46875 -7.625 6.46875 -10.59375 C 6.46875 -13.5625 7.023438 -16.722656 8.140625 -20.078125 L 9.140625 -20.078125 C 9.066406 -19.253906 9.03125 -18.4375 9.03125 -17.625 C 9.03125 -13.082031 10.40625 -9.304688 13.15625 -6.296875 C 15.90625 -3.285156 19.550781 -1.78125 24.09375 -1.78125 C 28.769531 -1.78125 32.613281 -3.191406 35.625 -6.015625 C 38.632812 -8.847656 40.140625 -12.398438 40.140625 -16.671875 C 40.140625 -20.941406 38.691406 -24.414062 35.796875 -27.09375 L 14.390625 -46.953125 C 10.367188 -50.671875 8.359375 -55.164062 8.359375 -60.4375 C 8.359375 -65.71875 10.125 -70.234375 13.65625 -73.984375 C 17.1875 -77.742188 21.960938 -79.625 27.984375 -79.625 C 30.816406 -79.625 34.015625 -79.25 37.578125 -78.5 L 41.9375 -78.5 L 41.9375 -64.796875 L 40.921875 -64.796875 C 40.921875 -68.285156 39.710938 -71.070312 37.296875 -73.15625 C 34.878906 -75.238281 31.773438 -76.28125 27.984375 -76.28125 C 24.191406 -76.28125 21.015625 -75.015625 18.453125 -72.484375 C 15.890625 -69.953125 14.609375 -66.789062 14.609375 -63 C 14.609375 -59.207031 16.09375 -55.9375 19.0625 -53.1875 L 41.03125 -32.890625 C 44.75 -29.472656 46.609375 -24.789062 46.609375 -18.84375 C 46.609375 -12.894531 44.710938 -8.003906 40.921875 -4.171875 C 37.128906 -0.347656 32.078125 1.5625 25.765625 1.5625 C 22.492188 1.5625 19.015625 1.054688 15.328125 0.046875 C 11.648438 -0.953125 8.804688 -2.492188 6.796875 -4.578125 Z M 6.796875 -4.578125 "/></g></g></g><path stroke-linecap="butt" transform="matrix(0.950429, 0, 0, 0.950429, 465.223828, 292.178473)" fill="none" stroke-linejoin="miter" d="M -0.00123284 1.998732 L 299.629201 1.998732 " stroke="#ffffff" stroke-width="4" stroke-opacity="1" stroke-miterlimit="4"/></svg>